<svg width="457" height="457" viewBox="0 0 457 457" fill="none" xmlns="http://www.w3.org/2000/svg">
<g clip-path="url(#clip0)">
<path d="M453.815 288.113C453.74 287.227 453.546 286.355 453.24 285.52L452.988 284.838C451.46 279.151 449.411 273.618 446.867 268.307L396.338 131.834C391.835 118.122 383.073 106.204 371.327 97.8171L369.527 85.0471C369.442 84.4461 369.303 83.8541 369.111 83.2781C362.335 63.1181 343.401 49.5691 322.133 49.6611C295.484 49.6611 273.307 71.5191 272.697 98.3861V98.8261L273.123 118.583C268.523 126.422 265.564 135.112 264.423 144.129H191.895C190.753 135.123 187.798 126.441 183.207 118.609L183.63 99.1971C183.63 99.0491 183.63 98.9611 183.63 98.8131C183.019 71.9461 160.841 50.1181 134.193 50.1181C112.922 50.0321 93.9889 63.5861 87.2149 83.7501C87.0289 84.3101 86.8929 84.8861 86.8079 85.4701L84.9979 97.8161C73.2549 106.204 64.4949 118.119 59.9919 131.829L9.46489 268.306C6.92089 273.617 4.87189 279.151 3.34389 284.838L3.09189 285.519C2.78489 286.356 2.59189 287.231 2.51689 288.119C-9.53511 340.133 22.8599 392.068 74.8739 404.12C126.888 416.172 178.823 383.776 190.875 331.763C192.534 324.604 193.371 317.279 193.37 309.93C193.37 308.88 193.347 307.83 193.314 306.792C193.353 306.407 193.372 306.019 193.37 305.632L193.157 272.132H263.183L262.96 307.632C262.96 307.8 262.975 307.995 262.982 308.161C262.972 308.74 262.96 309.333 262.96 309.914C262.977 363.303 306.271 406.569 359.66 406.552C413.049 406.535 456.315 363.241 456.298 309.852C456.295 302.535 455.462 295.242 453.815 288.113ZM134.192 70.1481C149.466 70.1481 162.273 82.2771 163.537 97.5341C147.165 86.0621 126.579 82.3641 107.237 87.4191C112.029 76.8501 122.587 70.0851 134.192 70.1481ZM78.8119 138.604C78.8569 138.482 78.8999 138.359 78.9399 138.236C87.1999 113.054 114.311 99.3361 139.493 107.596C149.705 110.946 158.497 117.627 164.46 126.568C164.648 126.899 164.856 127.219 165.081 127.527C169.865 135.061 172.402 143.803 172.395 152.727L173.018 250.669C142.731 211.578 87.7999 201.699 45.7909 227.789L78.8119 138.604ZM165.561 343.649C152.69 369.938 125.973 386.604 96.7019 386.601V386.597C54.3459 386.584 20.0209 352.237 20.0339 309.881C20.0359 303.478 20.8399 297.1 22.4269 290.897L27.8569 276.231C46.4739 238.205 92.3919 222.471 130.418 241.088C168.444 259.705 184.178 305.624 165.561 343.649ZM263.299 252.13H193.029L192.929 237.13H263.399L263.299 252.13ZM263.529 217.13H192.806L192.473 164.13H263.858L263.529 217.13ZM322.137 69.6611C333.955 69.5961 344.662 76.6151 349.316 87.4781C329.902 82.3331 309.207 86.0201 292.765 97.5531C293.779 82.0591 306.693 69.6611 322.137 69.6611ZM283.934 152.655C283.934 126.489 305.44 105.201 331.875 105.201C340.389 105.193 348.752 107.459 356.097 111.765C356.586 112.129 357.107 112.448 357.654 112.718C366.989 118.68 373.964 127.697 377.389 138.231C377.429 138.358 377.472 138.481 377.517 138.603L410.538 227.788C368.534 201.7 313.609 211.572 283.319 250.655L283.934 152.655ZM378.611 384.203C372.408 385.79 366.03 386.594 359.627 386.596L359.629 386.598C317.286 386.611 282.95 352.295 282.937 309.952C282.924 267.609 317.24 233.273 359.583 233.26C388.868 233.251 415.6 249.926 428.472 276.23L433.902 290.896C444.4 331.93 419.646 373.705 378.611 384.203Z" fill="url(#paint0_linear)"/>
<path d="M96.7009 241.429C58.8699 241.429 28.2009 272.097 28.2009 309.929C28.2009 347.76 58.8699 378.429 96.7009 378.429C134.533 378.429 165.201 347.76 165.201 309.929C165.16 272.115 134.516 241.471 96.7009 241.429ZM96.7009 358.43C69.9149 358.43 48.2009 336.716 48.2009 309.93C48.2009 283.144 69.9149 261.43 96.7009 261.43C123.487 261.43 145.201 283.144 145.201 309.93C145.172 336.703 123.475 358.4 96.7009 358.43Z" fill="url(#paint1_linear)"/>
<path d="M358.411 241.429C320.579 241.429 289.911 272.097 289.911 309.929C289.911 347.76 320.579 378.429 358.411 378.429C396.242 378.429 426.911 347.76 426.911 309.929C426.869 272.115 396.225 241.471 358.411 241.429ZM358.411 358.43C331.625 358.43 309.911 336.716 309.911 309.93C309.911 283.144 331.625 261.43 358.411 261.43C385.197 261.43 406.911 283.144 406.911 309.93C406.882 336.703 385.184 358.401 358.411 358.43Z" fill="url(#paint2_linear)"/>
</g>
<defs>
<linearGradient id="paint0_linear" x1="228.149" y1="49.6606" x2="228.149" y2="406.637" gradientUnits="userSpaceOnUse">
<stop stop-color="#B638E0"/>
<stop offset="1" stop-color="#0034F0"/>
</linearGradient>
<linearGradient id="paint1_linear" x1="96.7009" y1="241.429" x2="96.7009" y2="378.429" gradientUnits="userSpaceOnUse">
<stop stop-color="#B638E0"/>
<stop offset="1" stop-color="#0034F0"/>
</linearGradient>
<linearGradient id="paint2_linear" x1="358.411" y1="241.429" x2="358.411" y2="378.429" gradientUnits="userSpaceOnUse">
<stop stop-color="#B638E0"/>
<stop offset="1" stop-color="#0034F0"/>
</linearGradient>
<clipPath id="clip0">
<rect width="456.298" height="456.298" fill="white"/>
</clipPath>
</defs>
</svg>
