<svg width="484" height="484" viewBox="0 0 484 484" fill="none" xmlns="http://www.w3.org/2000/svg">
<path d="M416.648 33.2344C392.254 8.88281 352.75 8.88281 328.355 33.2344L306.254 55.457L70.9844 290.602L70.4844 291.105C70.3633 291.227 70.3633 291.355 70.2344 291.355C69.9844 291.73 69.6094 292.102 69.3633 292.477C69.3633 292.602 69.2344 292.602 69.2344 292.727C68.9844 293.102 68.8633 293.352 68.6094 293.727C68.4883 293.852 68.4883 293.973 68.3633 294.102C68.2383 294.477 68.1133 294.727 67.9844 295.102C67.9844 295.223 67.8633 295.223 67.8633 295.352L15.664 452.32C14.1328 456.789 15.2969 461.738 18.6601 465.055C21.0234 467.387 24.2109 468.691 27.5273 468.68C28.8828 468.656 30.2265 468.445 31.5234 468.055L188.371 415.73C188.492 415.73 188.492 415.73 188.621 415.609C189.016 415.492 189.395 415.324 189.742 415.105C189.84 415.094 189.926 415.051 189.996 414.984C190.367 414.734 190.867 414.48 191.242 414.23C191.613 413.984 191.992 413.609 192.367 413.359C192.492 413.23 192.613 413.23 192.613 413.109C192.742 412.984 192.992 412.863 193.117 412.609L450.488 155.238C474.84 130.844 474.84 91.3398 450.488 66.9492L416.648 33.2344ZM184.375 386.383L97.4609 299.473L314.996 81.9375L401.91 168.848L184.375 386.383ZM85.2187 322.574L161.148 398.5L47.1328 436.461L85.2187 322.574ZM432.883 137.754L419.645 151.117L332.727 64.1992L346.094 50.8398C360.715 36.2305 384.414 36.2305 399.039 50.8398L433.004 84.8047C447.516 99.4922 447.461 123.137 432.883 137.754Z" fill="url(#paint0_linear)"/>
<defs>
<linearGradient id="paint0_linear" x1="241.876" y1="14.9707" x2="241.876" y2="468.68" gradientUnits="userSpaceOnUse">
<stop stop-color="#B638E0"/>
<stop offset="1" stop-color="#0034F0"/>
</linearGradient>
</defs>
</svg>
