<svg width="512" height="512" viewBox="0 0 512 512" fill="none" xmlns="http://www.w3.org/2000/svg">
<g clip-path="url(#clip0)">
<path d="M234.661 490.333C105.278 490.333 0 385.058 0 255.676C0 126.293 105.278 21.0151 234.661 21.0151C279.651 21.0151 323.423 33.835 361.247 58.1116C368.672 62.8927 370.848 72.7909 366.067 80.2359C361.27 87.681 351.391 89.8333 343.946 85.0561C311.307 64.0841 273.507 53.0141 234.661 53.0141C122.918 53.0141 31.999 143.933 31.999 255.676C31.999 367.414 122.918 458.334 234.661 458.334C346.399 458.334 437.318 367.414 437.318 255.676C437.318 248.996 436.998 242.383 436.381 235.88C435.529 227.067 441.971 219.259 450.759 218.407C459.591 217.595 467.376 223.997 468.231 232.786C468.954 240.317 469.317 247.953 469.317 255.676C469.317 385.058 364.043 490.333 234.661 490.333V490.333Z" fill="url(#paint0_linear)"/>
<path d="M261.324 309.006C257.23 309.006 253.133 307.448 250.02 304.315L154.023 208.318C147.773 202.064 147.773 191.932 154.023 185.682C160.272 179.432 170.405 179.432 176.655 185.682L261.347 270.375L484.676 47.0418C490.93 40.792 501.063 40.792 507.312 47.0418C513.562 53.2917 513.562 63.4241 507.312 69.674L272.652 304.335C269.515 307.448 265.421 309.006 261.324 309.006V309.006Z" fill="url(#paint1_linear)"/>
</g>
<defs>
<linearGradient id="paint0_linear" x1="234.659" y1="21.0151" x2="234.659" y2="490.333" gradientUnits="userSpaceOnUse">
<stop stop-color="#B638E0"/>
<stop offset="1" stop-color="#0034F0"/>
</linearGradient>
<linearGradient id="paint1_linear" x1="330.667" y1="42.3545" x2="330.667" y2="309.006" gradientUnits="userSpaceOnUse">
<stop stop-color="#B638E0"/>
<stop offset="1" stop-color="#0034F0"/>
</linearGradient>
<clipPath id="clip0">
<rect width="512" height="512" fill="white"/>
</clipPath>
</defs>
</svg>
