<svg width="512" height="512" viewBox="0 0 512 512" fill="none" xmlns="http://www.w3.org/2000/svg">
<path d="M346.369 381.847L389.448 289.634C410.874 243.772 407.437 190.898 380.254 148.196C353.07 105.494 306.62 80 256 80C205.38 80 158.93 105.494 131.747 148.196C104.563 190.898 101.127 243.773 122.553 289.634L165.632 381.847C159.619 387.337 155.84 395.235 155.84 404C155.84 411.678 158.742 418.688 163.504 424C158.743 429.312 155.84 436.322 155.84 444C155.84 460.542 169.298 474 185.84 474H209.056C213.67 495.683 232.962 512 256.001 512C279.04 512 298.332 495.683 302.946 474H326.162C342.704 474 356.162 460.542 356.162 444C356.162 436.322 353.26 429.312 348.498 424C353.259 418.688 356.162 411.678 356.162 404C356.161 395.235 352.382 387.337 346.369 381.847ZM184.04 374L140.673 281.17C122.156 241.535 125.127 195.84 148.618 158.936C172.11 122.032 212.253 100 256 100C299.747 100 339.89 122.032 363.382 158.936C386.873 195.84 389.844 241.535 371.328 281.169L327.96 374H290V290H304C322.748 290 338 274.748 338 256C338 237.252 322.748 222 304 222C285.252 222 270 237.252 270 256V270H242V256C242 237.252 226.748 222 208 222C189.252 222 174 237.252 174 256C174 274.748 189.252 290 208 290H222V374H184.04ZM222 270H208C200.28 270 194 263.72 194 256C194 248.28 200.28 242 208 242C215.72 242 222 248.28 222 256V270ZM242 290H270V374H242V290ZM290 270V256C290 248.28 296.28 242 304 242C311.72 242 318 248.28 318 256C318 263.72 311.72 270 304 270H290ZM256 492C244.083 492 233.888 484.514 229.853 474H282.147C278.112 484.514 267.917 492 256 492ZM326.161 454H185.839C180.325 454 175.839 449.514 175.839 444C175.839 438.486 180.325 434 185.839 434H211C216.522 434 221 429.523 221 424C221 418.477 216.522 414 211 414H185.839C180.325 414 175.839 409.514 175.839 404C175.839 398.486 180.325 394 185.839 394H326.161C331.675 394 336.161 398.486 336.161 404C336.161 409.514 331.675 414 326.161 414H301C295.478 414 291 418.477 291 424C291 429.523 295.478 434 301 434H326.161C331.675 434 336.161 438.486 336.161 444C336.161 449.514 331.675 454 326.161 454Z" fill="url(#paint0_linear)"/>
<path d="M256 60C261.522 60 266 55.523 266 50V10C266 4.477 261.522 0 256 0C250.478 0 246 4.477 246 10V50C246 55.523 250.478 60 256 60Z" fill="url(#paint1_linear)"/>
<path d="M116.737 111.932C118.69 113.885 121.249 114.861 123.808 114.861C126.367 114.861 128.926 113.885 130.879 111.932C134.784 108.027 134.784 101.695 130.879 97.7889L102.595 69.5049C98.6892 65.5999 92.3592 65.5999 88.4522 69.5049C84.5472 73.4099 84.5472 79.7419 88.4522 83.6479L116.737 111.932Z" fill="url(#paint2_linear)"/>
<path d="M69.127 227.127H29.127C23.605 227.127 19.127 231.604 19.127 237.127C19.127 242.65 23.605 247.127 29.127 247.127H69.127C74.649 247.127 79.127 242.65 79.127 237.127C79.127 231.604 74.649 227.127 69.127 227.127Z" fill="url(#paint3_linear)"/>
<path d="M116.916 362.248L88.6319 390.532C84.7269 394.437 84.7269 400.769 88.6319 404.675C90.5849 406.628 93.1439 407.604 95.7029 407.604C98.2619 407.604 100.821 406.628 102.774 404.675L131.058 376.391C134.963 372.486 134.963 366.154 131.058 362.248C127.152 358.342 120.822 358.342 116.916 362.248V362.248Z" fill="url(#paint4_linear)"/>
<path d="M409.404 69.5048L381.12 97.7898C377.215 101.695 377.215 108.027 381.12 111.933C383.073 113.886 385.632 114.862 388.191 114.862C390.75 114.862 393.309 113.886 395.262 111.933L423.546 83.6488C427.451 79.7438 427.451 73.4118 423.546 69.5058C419.641 65.5998 413.311 65.5998 409.404 69.5048V69.5048Z" fill="url(#paint5_linear)"/>
<path d="M482.873 227.127H442.873C437.351 227.127 432.873 231.604 432.873 237.127C432.873 242.65 437.351 247.127 442.873 247.127H482.873C488.395 247.127 492.873 242.65 492.873 237.127C492.873 231.604 488.396 227.127 482.873 227.127Z" fill="url(#paint6_linear)"/>
<path d="M395.084 362.248C391.178 358.343 384.848 358.343 380.941 362.248C377.036 366.153 377.036 372.485 380.941 376.391L409.225 404.675C411.178 406.628 413.737 407.604 416.296 407.604C418.855 407.604 421.414 406.628 423.367 404.675C427.272 400.77 427.272 394.438 423.367 390.532L395.084 362.248Z" fill="url(#paint7_linear)"/>
<path d="M256 414C253.37 414 250.79 415.07 248.93 416.93C247.07 418.79 246 421.37 246 424C246 426.63 247.069 429.21 248.93 431.07C250.791 432.93 253.37 434 256 434C258.63 434 261.21 432.93 263.069 431.07C264.929 429.21 266 426.63 266 424C266 421.37 264.93 418.79 263.069 416.93C261.21 415.07 258.63 414 256 414Z" fill="url(#paint8_linear)"/>
<defs>
<linearGradient id="paint0_linear" x1="256" y1="80" x2="256" y2="512" gradientUnits="userSpaceOnUse">
<stop stop-color="#B638E0"/>
<stop offset="1" stop-color="#0034F0"/>
</linearGradient>
<linearGradient id="paint1_linear" x1="256" y1="0" x2="256" y2="60" gradientUnits="userSpaceOnUse">
<stop stop-color="#B638E0"/>
<stop offset="1" stop-color="#0034F0"/>
</linearGradient>
<linearGradient id="paint2_linear" x1="109.666" y1="66.5762" x2="109.666" y2="114.861" gradientUnits="userSpaceOnUse">
<stop stop-color="#B638E0"/>
<stop offset="1" stop-color="#0034F0"/>
</linearGradient>
<linearGradient id="paint3_linear" x1="49.127" y1="227.127" x2="49.127" y2="247.127" gradientUnits="userSpaceOnUse">
<stop stop-color="#B638E0"/>
<stop offset="1" stop-color="#0034F0"/>
</linearGradient>
<linearGradient id="paint4_linear" x1="109.845" y1="359.318" x2="109.845" y2="407.604" gradientUnits="userSpaceOnUse">
<stop stop-color="#B638E0"/>
<stop offset="1" stop-color="#0034F0"/>
</linearGradient>
<linearGradient id="paint5_linear" x1="402.333" y1="66.5762" x2="402.333" y2="114.862" gradientUnits="userSpaceOnUse">
<stop stop-color="#B638E0"/>
<stop offset="1" stop-color="#0034F0"/>
</linearGradient>
<linearGradient id="paint6_linear" x1="462.873" y1="227.127" x2="462.873" y2="247.127" gradientUnits="userSpaceOnUse">
<stop stop-color="#B638E0"/>
<stop offset="1" stop-color="#0034F0"/>
</linearGradient>
<linearGradient id="paint7_linear" x1="402.154" y1="359.319" x2="402.154" y2="407.604" gradientUnits="userSpaceOnUse">
<stop stop-color="#B638E0"/>
<stop offset="1" stop-color="#0034F0"/>
</linearGradient>
<linearGradient id="paint8_linear" x1="256" y1="414" x2="256" y2="434" gradientUnits="userSpaceOnUse">
<stop stop-color="#B638E0"/>
<stop offset="1" stop-color="#0034F0"/>
</linearGradient>
</defs>
</svg>
