<svg width="512" height="512" viewBox="0 0 512 512" fill="none" xmlns="http://www.w3.org/2000/svg">
<g clip-path="url(#clip0)">
<path d="M509.071 380.932L423.07 294.931C421.407 293.346 418.997 291.986 415.999 292.002H361.611C398.914 260.988 421.088 214.775 421.088 165.088C421.088 74.0587 347.03 0 256 0C164.97 0 90.9116 74.0587 90.9116 165.088C90.9116 214.776 113.085 260.988 150.389 292.002H96.0006C93.7066 292.056 91.0356 292.801 88.9296 294.931L2.92898 380.932C-0.976002 384.836 -0.976002 391.168 2.92898 395.074C6.83497 398.979 13.1649 398.979 17.0719 395.074L86.0017 326.145V482.001C86.0017 498.543 99.4596 512.001 116.002 512.001H396C412.542 512.001 426 498.543 426 482.001V326.144L494.93 395.073C498.836 398.978 505.166 398.978 509.073 395.073C512.977 391.168 512.977 384.836 509.071 380.932V380.932ZM399.819 312.002L366.82 378.002H145.181L112.182 312.001L399.819 312.002ZM110.912 165.088C110.912 85.0867 175.998 19.9999 256 19.9999C336.002 19.9999 401.088 85.0867 401.088 165.088C401.088 217.978 372.489 266.375 326.305 292.002H185.695C139.512 266.375 110.912 217.979 110.912 165.088V165.088ZM395.999 492H116.001C110.487 492 106.001 487.514 106.001 482V471.999H140.995C146.517 471.999 150.995 467.522 150.995 461.999C150.995 456.476 146.517 451.999 140.995 451.999H106.001V344.363L130.056 392.474C131.75 395.862 135.212 398.002 139 398.002H373C376.788 398.002 380.25 395.862 381.944 392.474L405.999 344.363V482C405.999 487.514 401.513 492 395.999 492V492Z" fill="url(#paint0_linear)"/>
<path d="M331.001 119.104C331.001 99.073 323.199 80.24 309.032 66.073C294.865 51.906 276.031 44.104 256.001 44.104C235.971 44.104 217.137 51.906 202.97 66.073C188.803 80.24 181.001 99.073 181.001 119.104C181.001 135.646 194.459 149.104 211.001 149.104C227.543 149.104 241.001 135.646 241.001 119.104C241.001 115.095 242.561 111.329 245.394 108.496C248.226 105.664 251.993 104.104 256.001 104.104C260.009 104.104 263.776 105.664 266.609 108.497C269.441 111.329 271.001 115.095 271.001 119.104C271.001 121.141 270.625 123.073 269.883 124.849C269.127 126.659 267.961 128.359 266.418 129.902C252.783 143.537 244.782 152.765 238.804 161.752C230.07 174.878 226.001 187.333 226.001 200.947C226.001 208.625 228.904 215.636 233.665 220.948C228.904 226.261 226.001 233.274 226.001 240.955C226.001 257.497 239.459 270.955 256.001 270.955C272.543 270.955 286.001 257.497 286.001 240.955V240.948C286.001 233.27 283.098 226.259 278.337 220.948C283.098 215.636 286.001 208.625 286.001 200.948C286.001 200.047 286.476 198.26 288.734 194.864C292.995 188.461 301.289 179.878 308.841 172.326C315.856 165.31 321.364 157.083 325.212 147.872C329.054 138.676 331.001 128.998 331.001 119.104V119.104ZM266.001 240.955C266.001 246.469 261.515 250.955 256.001 250.955C250.487 250.955 246.001 246.469 246.001 240.947C246.001 235.433 250.487 230.947 256.001 230.947C261.515 230.947 266.001 235.433 266.001 240.947V240.955ZM306.758 140.162C303.92 146.956 299.862 153.019 294.699 158.183C282.852 170.03 276.3 177.447 272.084 183.784C267.934 190.021 266.001 195.475 266.001 200.947C266.001 206.461 261.515 210.947 256.001 210.947C250.487 210.947 246.001 206.461 246.001 200.947C246.001 191.328 248.917 182.657 255.455 172.831C260.651 165.02 267.925 156.68 280.56 144.044C283.955 140.649 286.572 136.785 288.337 132.559C290.104 128.329 291 123.802 291 119.104C291 109.752 287.359 100.962 280.75 94.354C274.141 87.744 265.352 84.104 256 84.104C246.648 84.104 237.859 87.744 231.251 94.353C224.641 100.962 221 109.752 221 119.103C221 124.617 216.514 129.103 211 129.103C205.486 129.103 201 124.617 201 119.103C201 104.415 206.722 90.603 217.111 80.214C227.501 69.824 241.311 64.103 256 64.103C270.689 64.103 284.499 69.825 294.889 80.214C305.279 90.603 311 104.414 311 119.103C311.001 126.337 309.573 133.422 306.758 140.162V140.162Z" fill="url(#paint1_linear)"/>
<path d="M185.992 451.999C180.47 451.999 175.992 456.476 175.992 461.999C175.992 467.522 180.47 471.999 185.992 471.999H186C191.522 471.999 195.996 467.522 195.996 461.999C195.996 456.476 191.515 451.999 185.992 451.999V451.999Z" fill="url(#paint2_linear)"/>
</g>
<defs>
<linearGradient id="paint0_linear" x1="256" y1="0" x2="256" y2="512.001" gradientUnits="userSpaceOnUse">
<stop stop-color="#B638E0"/>
<stop offset="1" stop-color="#0034F0"/>
</linearGradient>
<linearGradient id="paint1_linear" x1="256.001" y1="44.104" x2="256.001" y2="270.955" gradientUnits="userSpaceOnUse">
<stop stop-color="#B638E0"/>
<stop offset="1" stop-color="#0034F0"/>
</linearGradient>
<linearGradient id="paint2_linear" x1="185.994" y1="451.999" x2="185.994" y2="471.999" gradientUnits="userSpaceOnUse">
<stop stop-color="#B638E0"/>
<stop offset="1" stop-color="#0034F0"/>
</linearGradient>
<clipPath id="clip0">
<rect width="512" height="512" fill="white"/>
</clipPath>
</defs>
</svg>
