<svg width="512" height="512" viewBox="0 0 512 512" fill="none" xmlns="http://www.w3.org/2000/svg">
<path d="M208 200C159.48 200 120 239.48 120 288C120 336.52 159.48 376 208 376C256.52 376 296 336.52 296 288C296 239.48 256.52 200 208 200ZM208 360C168.304 360 136 327.704 136 288C136 248.296 168.304 216 208 216C247.696 216 280 248.296 280 288C280 327.704 247.696 360 208 360Z" fill="url(#paint0_linear)"/>
<path d="M376 312V350.944L434.424 312H448C470.056 312 488 294.056 488 272V176C488 153.944 470.056 136 448 136H405.2C398.592 117.384 380.856 104 360 104C339.144 104 321.408 117.384 314.8 136H272C269.264 136 266.584 136.28 264 136.808V80C264 57.944 246.056 40 224 40H181.2C174.592 21.384 156.856 8 136 8C115.144 8 97.408 21.384 90.8 40H48C25.944 40 8 57.944 8 80V176C8 198.056 25.944 216 48 216H112.224C97.088 236.08 88 260.968 88 288C88 312.064 95.184 334.448 107.432 353.256L96 364.688L88 356.688L18.632 426.064C11.776 432.912 8 442.032 8 451.72C8 471.728 24.28 488 44.288 488C53.984 488 63.096 484.224 69.944 477.376L139.312 408L131.312 400L142.744 388.568C161.552 400.816 183.936 408 208 408C265.952 408 314.432 366.712 325.584 312H376ZM408 152H448C461.232 152 472 162.768 472 176V272C472 285.232 461.232 296 448 296H429.576L392 321.056V296H327.592C327.768 293.344 328 290.704 328 288C328 285.296 327.768 282.656 327.592 280H440V264C440 230.344 419.072 201.528 389.568 189.736C400.768 180.936 408 167.312 408 152ZM383.392 264L378.504 202.752C404.792 210.712 424 235.144 424 264H383.392ZM362.232 200.112L367.336 264H352.664L357.76 200.136C358.512 200.112 359.248 200 360 200C360.752 200 361.488 200.088 362.232 200.112ZM336.608 264H325.576C322.68 249.776 317.152 236.528 309.696 224.608C317.896 214.144 329 206.624 341.488 202.848L336.608 264ZM360 120C377.648 120 392 134.352 392 152C392 169.648 377.648 184 360 184C342.352 184 328 169.648 328 152C328 134.352 342.352 120 360 120ZM312 152C312 167.304 319.224 180.92 330.408 189.72C318.824 194.336 308.384 201.6 300.008 211.104C286.376 194.824 268.48 182.296 248.096 175.04C248.616 162.256 259.096 152 272 152H312ZM184 56H224C237.232 56 248 66.768 248 80V144.208C239.728 150.472 234.04 159.8 232.552 170.552C227.168 169.424 221.624 168.784 216 168.416V168C216 134.344 195.072 105.528 165.568 93.736C176.768 84.936 184 71.312 184 56V56ZM72 168C72 139.144 91.208 114.712 117.504 106.752L112.608 168H72ZM133.768 104.112C134.512 104.088 135.248 104 136 104C136.752 104 137.488 104.088 138.232 104.112L143.336 168H128.664L133.768 104.112ZM154.496 106.752C180.792 114.712 200 139.144 200 168H159.392L154.496 106.752ZM136 24C153.648 24 168 38.352 168 56C168 73.648 153.648 88 136 88C118.352 88 104 73.648 104 56C104 38.352 118.352 24 136 24ZM24 176V80C24 66.768 34.768 56 48 56H88C88 71.312 95.232 84.936 106.432 93.736C76.928 105.528 56 134.344 56 168V184H148.392C140.552 188.512 133.296 193.896 126.696 200H48C34.768 200 24 189.232 24 176ZM58.632 466.064C54.8 469.888 49.704 472 44.288 472C33.104 472 24 462.896 24 451.72C24 446.304 26.112 441.216 29.944 437.376L88 379.312L116.688 408L58.632 466.064ZM120 388.688L107.312 376L117.144 366.168C121.056 370.704 125.296 374.944 129.832 378.856L120 388.688ZM208 392C150.656 392 104 345.344 104 288C104 230.656 150.656 184 208 184C265.344 184 312 230.656 312 288C312 345.344 265.344 392 208 392Z" fill="url(#paint1_linear)"/>
<path d="M480 360H336C322.768 360 312 370.768 312 384V480C312 493.232 322.768 504 336 504H480C493.232 504 504 493.232 504 480V384C504 370.768 493.232 360 480 360ZM488 480C488 484.416 484.408 488 480 488H336C331.592 488 328 484.416 328 480V384C328 379.584 331.592 376 336 376H480C484.408 376 488 379.584 488 384V480Z" fill="url(#paint2_linear)"/>
<path d="M456 408H440V456H424V424H408V456H392V440H376V456H360V392H344V472H472V456H456V408Z" fill="url(#paint3_linear)"/>
<path d="M440 168H456V184H440V168Z" fill="url(#paint4_linear)"/>
<path d="M440 200H456V216H440V200Z" fill="url(#paint5_linear)"/>
<path d="M40 72H56V88H40V72Z" fill="url(#paint6_linear)"/>
<path d="M40 104H56V120H40V104Z" fill="url(#paint7_linear)"/>
<defs>
<linearGradient id="paint0_linear" x1="208" y1="200" x2="208" y2="376" gradientUnits="userSpaceOnUse">
<stop stop-color="#B638E0"/>
<stop offset="1" stop-color="#0034F0"/>
</linearGradient>
<linearGradient id="paint1_linear" x1="248" y1="8" x2="248" y2="488" gradientUnits="userSpaceOnUse">
<stop stop-color="#B638E0"/>
<stop offset="1" stop-color="#0034F0"/>
</linearGradient>
<linearGradient id="paint2_linear" x1="408" y1="360" x2="408" y2="504" gradientUnits="userSpaceOnUse">
<stop stop-color="#B638E0"/>
<stop offset="1" stop-color="#0034F0"/>
</linearGradient>
<linearGradient id="paint3_linear" x1="408" y1="392" x2="408" y2="472" gradientUnits="userSpaceOnUse">
<stop stop-color="#B638E0"/>
<stop offset="1" stop-color="#0034F0"/>
</linearGradient>
<linearGradient id="paint4_linear" x1="448" y1="168" x2="448" y2="184" gradientUnits="userSpaceOnUse">
<stop stop-color="#B638E0"/>
<stop offset="1" stop-color="#0034F0"/>
</linearGradient>
<linearGradient id="paint5_linear" x1="448" y1="200" x2="448" y2="216" gradientUnits="userSpaceOnUse">
<stop stop-color="#B638E0"/>
<stop offset="1" stop-color="#0034F0"/>
</linearGradient>
<linearGradient id="paint6_linear" x1="48" y1="72" x2="48" y2="88" gradientUnits="userSpaceOnUse">
<stop stop-color="#B638E0"/>
<stop offset="1" stop-color="#0034F0"/>
</linearGradient>
<linearGradient id="paint7_linear" x1="48" y1="104" x2="48" y2="120" gradientUnits="userSpaceOnUse">
<stop stop-color="#B638E0"/>
<stop offset="1" stop-color="#0034F0"/>
</linearGradient>
</defs>
</svg>
