<svg width="512" height="512" viewBox="0 0 512 512" fill="none" xmlns="http://www.w3.org/2000/svg">
<g clip-path="url(#clip0)">
<path d="M392.533 229.982H366.933V214.272L396.603 202.01C414.135 195.044 422.7 175.185 415.735 157.653C408.769 140.122 388.91 131.556 371.379 138.522L366.933 140.288V34.1333C366.933 15.282 351.651 0 332.799 0H170.666C151.815 0 136.533 15.282 136.533 34.1333V204.535C108.702 206.215 87.0698 229.409 87.3295 257.289C88.5257 283.416 88.3833 309.588 86.9028 335.701C85.9727 352.768 84.8207 374.05 85.5802 384.213C85.746 399.594 91.1284 414.462 100.846 426.385C109.584 438.878 108.048 437.316 115.114 448.068C129.296 469.641 127.999 472.747 127.999 486.4C127.999 500.539 139.461 512 153.599 512H255.999C270.138 512 281.599 500.539 281.599 486.4V468.915C281.595 465.87 283.223 463.056 285.866 461.542C302.572 452.99 317.247 440.952 328.9 426.24H332.799C348.361 426.184 361.915 415.61 365.755 400.529C366.156 400.529 366.532 400.649 366.933 400.649H375.722C389.028 400.672 401.125 392.932 406.681 380.841C412.236 368.749 410.229 354.529 401.544 344.448C410.155 339.363 416.065 330.719 417.679 320.85C419.292 310.98 416.442 300.904 409.898 293.342C423.089 285.514 429.421 269.836 425.367 255.043C421.312 240.25 407.871 229.991 392.533 229.982V229.982ZM392.533 247.049C401.958 247.049 409.599 254.69 409.599 264.115C409.599 273.541 401.958 281.182 392.533 281.182H366.933C357.507 281.182 349.866 273.541 349.866 264.115C349.866 254.69 357.507 247.049 366.933 247.049H392.533ZM383.999 332.382H366.933C357.507 332.382 349.866 324.741 349.866 315.315C349.866 305.89 357.507 298.249 366.933 298.249H383.999C393.425 298.249 401.066 305.89 401.066 315.315C401.066 324.741 393.425 332.382 383.999 332.382ZM377.668 154.394C386.448 150.932 396.371 155.243 399.833 164.023C403.295 172.803 398.983 182.727 390.203 186.189L366.933 195.814V158.652L377.668 154.394ZM215.347 34.1333C212.111 34.1457 209.151 32.3148 207.718 29.4144L201.54 17.0667H301.926L295.748 29.4144C294.314 32.3148 291.354 34.1457 288.119 34.1333H215.347ZM277.503 446.694C269.512 451.227 264.562 459.694 264.533 468.881V486.4C264.533 491.113 260.712 494.933 255.999 494.933H153.599C148.887 494.933 145.066 491.113 145.066 486.4V477.867C145.066 459.546 133.213 445.193 124.961 431.787C109.798 407.202 104.481 407.697 102.596 382.916C101.606 369.613 104.499 331.025 104.883 316.928C105.096 308.395 104.644 277.129 104.396 257.058C104.33 247.666 108 238.633 114.597 231.947C121.195 225.262 130.178 221.473 139.571 221.414C159.137 221.414 165.665 233.702 185.412 239.334C197.724 242.725 210.275 245.175 222.958 246.665C227.163 247.105 230.374 250.621 230.434 254.848V256.273C230.374 259.251 228.676 285.286 187.767 285.286C187.238 285.237 186.704 285.292 186.197 285.449C179.669 285.986 149.819 279.91 144.204 268.672C142.083 264.454 136.945 262.754 132.727 264.875C128.509 266.995 126.809 272.134 128.929 276.352C130.819 279.965 133.402 283.169 136.533 285.781V392.107C136.533 410.958 151.815 426.24 170.666 426.24H306.056C297.388 434.172 287.802 441.038 277.503 446.694V446.694ZM289.45 145.22L269.132 136.533C272.895 132.702 276.59 128.623 280.157 124.194C285.099 130.233 288.307 137.5 289.442 145.22H289.45ZM213.503 151.287C214.86 119.595 242.32 103.637 266.521 113.937C253.328 131.76 234.743 144.858 213.52 151.287H213.503ZM255.069 149.103L289.39 163.772C281.915 217.114 225.493 218.667 214.894 168.593C229.576 165.17 243.307 158.512 255.086 149.103H255.069ZM307.199 279.893V324.267H290.133V290.133C290.133 285.421 286.312 281.6 281.599 281.6C276.887 281.6 273.066 285.421 273.066 290.133V324.267H230.399C230.399 281.958 230.399 291.243 230.323 289.766C240.835 281.178 247.092 268.443 247.466 254.874C247.402 241.523 237.038 230.488 223.718 229.589C241.282 219.577 262.886 219.838 280.203 230.273C297.519 240.708 307.845 259.686 307.199 279.893ZM196.266 324.267V301.978C202.06 301.545 207.787 300.451 213.333 298.718V324.267H196.266ZM332.799 409.173H170.666C161.24 409.173 153.599 401.532 153.599 392.107V295.68C161.828 298.882 170.43 301.024 179.199 302.054V324.267C179.199 333.692 186.84 341.333 196.266 341.333H307.199C316.625 341.333 324.266 333.692 324.266 324.267V279.893C324.307 250.902 307.84 224.416 281.821 211.627C297.34 198.236 306.49 178.92 307.02 158.43C307.02 158.43 307.02 158.345 307.02 158.302C309.025 137.661 300.443 117.408 284.219 104.491C247.935 78.1995 196.266 102.4 196.266 153.6C195.675 175.649 204.869 196.83 221.38 211.456C213.849 214.993 206.992 219.812 201.113 225.698C197.512 224.905 193.8 223.991 190.071 222.942C176.281 219.008 169.591 210.014 153.599 206.037V34.1333C153.599 24.7077 161.24 17.0667 170.666 17.0667H182.459L192.452 37.0517C196.765 45.7438 205.643 51.2298 215.347 51.2H288.119C297.822 51.2298 306.7 45.7438 311.014 37.0517L321.006 17.0667H332.799C342.225 17.0667 349.866 24.7077 349.866 34.1333V234.726C340.315 240.165 334.007 249.911 332.958 260.852C331.909 271.793 336.249 282.56 344.592 289.715C337.119 296.13 332.813 305.483 332.798 315.332C332.783 325.18 337.062 334.546 344.516 340.983C336.27 348.103 331.963 358.761 332.946 369.61C333.929 380.46 340.083 390.169 349.474 395.691C347.785 403.551 340.839 409.168 332.799 409.173V409.173ZM375.722 383.573H366.933C357.507 383.573 349.866 375.932 349.866 366.507C349.866 357.081 357.507 349.44 366.933 349.44H375.722C385.148 349.44 392.789 357.081 392.789 366.507C392.789 375.932 385.148 383.573 375.722 383.573Z" fill="url(#paint0_linear)"/>
<path d="M298.667 375.467H204.8C200.087 375.467 196.267 379.287 196.267 384C196.267 388.713 200.087 392.533 204.8 392.533H298.667C303.38 392.533 307.2 388.713 307.2 384C307.2 379.287 303.38 375.467 298.667 375.467Z" fill="url(#paint1_linear)"/>
</g>
<defs>
<linearGradient id="paint0_linear" x1="255.957" y1="0" x2="255.957" y2="512" gradientUnits="userSpaceOnUse">
<stop stop-color="#B638E0"/>
<stop offset="1" stop-color="#0034F0"/>
</linearGradient>
<linearGradient id="paint1_linear" x1="251.733" y1="375.467" x2="251.733" y2="392.533" gradientUnits="userSpaceOnUse">
<stop stop-color="#B638E0"/>
<stop offset="1" stop-color="#0034F0"/>
</linearGradient>
<clipPath id="clip0">
<rect width="512" height="512" fill="white"/>
</clipPath>
</defs>
</svg>
